<?xml version="1.0" encoding="UTF-8" standalone="no"?>
<!-- Created with Inkscape (http://www.inkscape.org/) -->
<svg
   xmlns:dc="http://purl.org/dc/elements/1.1/"
   xmlns:cc="http://creativecommons.org/ns#"
   xmlns:rdf="http://www.w3.org/1999/02/22-rdf-syntax-ns#"
   xmlns:svg="http://www.w3.org/2000/svg"
   xmlns="http://www.w3.org/2000/svg"
   xmlns:sodipodi="http://sodipodi.sourceforge.net/DTD/sodipodi-0.dtd"
   xmlns:inkscape="http://www.inkscape.org/namespaces/inkscape"
   id="svg2403"
   sodipodi:version="0.32"
   inkscape:version="0.46"
   width="507"
   height="512.1"
   xml:space="preserve"
   sodipodi:docname="EU food contact material symbol.svg"
   version="1.0"
   inkscape:output_extension="org.inkscape.output.svg.inkscape"><metadata
     id="metadata2408"><rdf:RDF><cc:Work
         rdf:about=""><dc:format>image/svg+xml</dc:format><dc:type
           rdf:resource="http://purl.org/dc/dcmitype/StillImage" /></cc:Work></rdf:RDF></metadata><defs
     id="defs2406"><inkscape:perspective
       sodipodi:type="inkscape:persp3d"
       inkscape:vp_x="0 : 526.2 : 1"
       inkscape:vp_y="0 : 1000 : 0"
       inkscape:vp_z="744.1 : 526.2 : 1"
       inkscape:persp3d-origin="372 : 350.8 : 1"
       id="perspective2410" /></defs><sodipodi:namedview
     inkscape:window-height="626"
     inkscape:window-width="640"
     inkscape:pageshadow="2"
     inkscape:pageopacity="0.0"
     guidetolerance="10.0"
     gridtolerance="10.0"
     objecttolerance="10.0"
     borderopacity="1.0"
     bordercolor="#666666"
     pagecolor="#ffffff"
     id="base"
     showgrid="false"
     inkscape:zoom="0.4936"
     inkscape:cx="-0.1846"
     inkscape:cy="113.3"
     inkscape:window-x="2"
     inkscape:window-y="41"
     inkscape:current-layer="g2412" /><g
     id="g2412"
     inkscape:groupmode="layer"
     inkscape:label="l_33820041113de00040017"
     transform="matrix(1.25,0,0,-1.25,-111.4,955.1)"><path
       style="fill:#000000"
       d="M 331.7,355.9 C 303.1,360.4 275.9,372.9 259.4,389 C 248.9,399.4 242.5,410.8 239.5,424.3 C 238,430.8 237.9,435.6 238.4,459.2 C 238.8,474.3 239.4,493.8 239.7,502.3 L 240.4,518.1 L 251.5,518.1 C 298.1,518.1 330.8,537.8 345.4,574.5 C 348.4,582 348.6,583.5 349.3,600 C 349.7,609.6 350,645.6 350.1,680.1 L 350.2,743.1 L 232.6,743.1 L 115,743.1 L 115.3,662.1 L 115.6,581.5 L 118.4,574.5 C 126.7,553.7 142,537.6 164,526.6 C 174.1,521.6 197.7,517.1 214.3,517.1 L 219.1,517.1 L 219.1,476.9 C 219.1,432.6 219.1,432.6 212.5,418.8 C 200,392.3 178.8,373.6 151,364.4 C 139,360.5 131.6,359.3 114.3,358.7 C 100.1,358.2 96.74,358.4 96.04,359.5 C 95.54,360.3 95.14,364.4 95.14,368.6 L 95.14,376.4 L 104.5,376.4 C 142,376.4 173.7,395.5 189,427.6 C 192.7,435.2 193,436.7 194.1,449.7 C 194.7,457.4 195.1,470.4 194.9,478.6 L 194.6,493.5 L 184.1,496.3 C 152.8,504.4 130.6,516.2 113.6,533.6 C 100.7,546.9 92.54,562.8 90.24,579.4 C 89.54,584.4 89.14,618 89.14,675.1 L 89.14,764.1 L 232.6,764.1 L 376.2,764.1 L 376.2,675.1 C 376.2,589.3 376.1,586.1 374.2,578.4 C 367.2,551.2 345.3,526.1 315.9,511.7 C 304.4,506.1 285.6,499.8 273.5,497.6 L 264.4,495.9 L 263.7,483.3 C 262.2,452.9 263.4,435.9 267.9,426.1 C 279.1,401.4 302.5,385.5 335.6,379.9 C 340.5,379.1 347,378.4 350.1,378.4 C 353.2,378.4 357.4,378.1 359.4,377.8 L 363.2,377.1 L 363.2,365.8 L 363.2,354.4 L 351.4,354.5 C 345,354.6 336.1,355.2 331.7,355.9 z M 424.2,479.7 L 424.2,601 L 428.8,601 C 436.6,601 446.7,603.9 452.9,607.9 C 459.5,612.2 463.2,616.5 467,624.7 C 470.1,631.2 470,629.6 470.5,721.1 L 470.7,763.1 L 482.7,763.1 L 494.7,763.1 L 494.7,694.1 L 494.7,625.4 L 492.3,618.9 C 487.5,605.8 478.1,594.8 465,586.7 L 458.2,582.5 L 458.2,470.4 L 458.2,358.4 L 441.2,358.4 L 424.2,358.4 L 424.2,479.7 z M 391.2,710.1 L 391.2,764.1 L 405,763.1 L 418.7,763.1 L 419,710.1 L 419.2,656.9 L 405.2,656.9 L 391.2,656.9 L 391.2,710.1 z M 430.4,710.1 L 430.7,763.1 L 444.2,763.1 L 457.7,763.1 L 457.7,710.1 L 457.7,657.4 L 443.9,657.1 L 430.2,656.8 L 430.4,710.1 z"
       id="path2491" /></g></svg>